<svg id="Grupo_1" data-name="Grupo 1" xmlns="http://www.w3.org/2000/svg" width="104.208" height="32.939" viewBox="0 0 104.208 32.939">
  <path id="Trazado_1" data-name="Trazado 1" d="M1052.18,395.625a.835.835,0,0,0-.823-.845h-1.924a.816.816,0,0,0-.718.434l-3.473,6.44-.182.352-.2-.352s-2.574-4.851-3.416-6.426a.839.839,0,0,0-.738-.449h-1.9a.855.855,0,0,0-.843.866V408.8a.867.867,0,0,0,.855.878h1.3a.867.867,0,0,0,.855-.878v-8.491l.08-.021q.181.353.444.809l2.481,4.56a.932.932,0,0,0,.807.394h.585a.933.933,0,0,0,.807-.394l2.481-4.56q.262-.456.444-.809l.081.021v8.512a.832.832,0,0,0,.82.843h1.365a.832.832,0,0,0,.821-.843V395.625Z" transform="translate(-998.136 -394.78)" fill="#1f2429"/>
  <path id="Trazado_2" data-name="Trazado 2" d="M1114.562,395.724a6.01,6.01,0,0,0-3.348-.943h-4.237a.818.818,0,0,0-.807.829v13.218a.825.825,0,0,0,.814.836h1.479a.825.825,0,0,0,.814-.836V403.86h2.138a5.93,5.93,0,0,0,1.856-.353,4.09,4.09,0,0,0,2.743-4.187q0-2.654-1.452-3.6m-2.249,5.006a1.98,1.98,0,0,1-1.241.394h-1.8V397.5h1.8a1.945,1.945,0,0,1,1.241.4,1.707,1.707,0,0,1,.514,1.42,1.675,1.675,0,0,1-.514,1.41" transform="translate(-1049.544 -394.781)" fill="#1f2429"/>
  <path id="Trazado_3" data-name="Trazado 3" d="M1209.807,395.628l-.04,8.312a12.886,12.886,0,0,0-.742-1.248l-4.747-7.53a.809.809,0,0,0-.683-.382h-1.867a.826.826,0,0,0-.814.837v13.208a.831.831,0,0,0,.815.842l1.017,0c.086,0,.166,0,.243-.009h.17a.831.831,0,0,0,.819-.841l0-6.955q0-.952-.041-1.438l.082-.021a12.909,12.909,0,0,0,.741,1.248l4.847,7.626a.815.815,0,0,0,.687.382h1.758a.831.831,0,0,0,.82-.842V395.632a.841.841,0,0,0-.829-.852h-1.41a.84.84,0,0,0-.829.848" transform="translate(-1120.948 -394.78)" fill="#1f2429"/>
  <path id="Trazado_4" data-name="Trazado 4" d="M1264.253,394.78h-1.27a.812.812,0,0,0-.709.424l-2.494,4.5-2.469-4.5a.822.822,0,0,0-.719-.432h-1.608a.849.849,0,0,0-.7,1.294l3.867,6.448v6.3a.833.833,0,0,0,.821.844h1.5a.833.833,0,0,0,.822-.844v-6.233l3.869-6.532a.839.839,0,0,0-.7-1.274Z" transform="translate(-1161.074 -394.78)" fill="#1f2429"/>
  <path id="Trazado_5" data-name="Trazado 5" d="M996.528,466.759h-6.9a.811.811,0,0,0-.8.822s0,.006,0,.009v12.891a.818.818,0,0,0,.807.829h6.879a.838.838,0,0,0,.827-.849v-1.018a.839.839,0,0,0-.826-.85l-4.58-.007V475.22h3.992a.854.854,0,0,0,.842-.865v-1.024a.824.824,0,0,0-.813-.835h-4.021v-3.013h4.57a.847.847,0,0,0,.835-.859V467.6a.827.827,0,0,0-.816-.838" transform="translate(-961.112 -448.538)" fill="#1f2429"/>
  <path id="Trazado_6" data-name="Trazado 6" d="M939.018,466.759a.83.83,0,0,0-.818.841v4.929h-5.447V467.6a.827.827,0,0,0-.815-.838h-1.5a.827.827,0,0,0-.816.838v12.875a.828.828,0,0,0,.816.839h1.494a.828.828,0,0,0,.816-.839v-5.215H938.2v5.217a.825.825,0,0,0,.813.836h1.5a.822.822,0,0,0,.811-.833V467.6a.83.83,0,0,0-.818-.841Z" transform="translate(-916.491 -448.538)" fill="#1f2429"/>
  <path id="Trazado_7" data-name="Trazado 7" d="M881.807,427.552h-4.743a.766.766,0,0,1-.756-.776V395.557a.766.766,0,0,1,.756-.777h4.743a.766.766,0,0,1,.756.777v31.219a.766.766,0,0,1-.756.776" transform="translate(-876.308 -394.78)" fill="#f06"/>
  <path id="Trazado_8" data-name="Trazado 8" d="M928.712,408.025q-1.624-1.814-1.624-5.649,0-7.379,6.737-7.379a10.1,10.1,0,0,1,2.058.218,5.593,5.593,0,0,1,1.67.592.949.949,0,0,1,.267,1.4,5.061,5.061,0,0,1-.535.829.809.809,0,0,1-.944.219,10.443,10.443,0,0,0-1.124-.375,6.327,6.327,0,0,0-1.453-.145,3.057,3.057,0,0,0-2.632,1.161,5.882,5.882,0,0,0-.857,3.5q0,4.726,3.449,4.726a5.878,5.878,0,0,0,1.574-.187,6.416,6.416,0,0,0,1.29-.477c.657-.349,1.141.2,1.374.738a1.234,1.234,0,0,1-.446,1.854,6.6,6.6,0,0,1-1.755.591,11.482,11.482,0,0,1-2.038.2,6.4,6.4,0,0,1-5.013-1.814" transform="translate(-914.578 -394.942)" fill="#1f2429"/>
  <path id="Trazado_9" data-name="Trazado 9" d="M978.63,407.921a9.882,9.882,0,0,1,0-11.007,6.958,6.958,0,0,1,9.592,0,9.934,9.934,0,0,1,0,11.007,6.957,6.957,0,0,1-9.592,0m7.242-2a7.81,7.81,0,0,0,0-7,3.106,3.106,0,0,0-4.892,0,7.725,7.725,0,0,0,0,7,3.089,3.089,0,0,0,4.892,0" transform="translate(-952.162 -394.942)" fill="#1f2429"/>
  <path id="Trazado_10" data-name="Trazado 10" d="M1147.183,409.665a.835.835,0,0,1-.77-1.11l4.393-13.207a.819.819,0,0,1,.773-.568h1.964a.819.819,0,0,1,.773.567l4.407,13.208a.833.833,0,0,1-.77,1.107H1156.5a.816.816,0,0,1-.774-.576l-.776-2.44h-4.859l-.769,2.44a.818.818,0,0,1-.775.58h-1.366m6.883-5.81-1.173-3.765a9.936,9.936,0,0,1-.309-1.354h-.083c-.014.084-.045.272-.092.561a3.892,3.892,0,0,1-.216.793l-1.215,3.765Z" transform="translate(-1079.839 -394.78)" fill="#1f2429"/>
  <path id="Trazado_11" data-name="Trazado 11" d="M1032.96,481.31a.826.826,0,0,1-.815-.837V467.578a.81.81,0,0,1,.8-.82h3.942q5.023,0,5.023,3.909a3.321,3.321,0,0,1-.635,2.027,3.737,3.737,0,0,1-1.725,1.278v.083a1.918,1.918,0,0,1,.787.7,5.4,5.4,0,0,1,.666,1.216l1.629,4.178a.846.846,0,0,1-.766,1.164h-1.493a.8.8,0,0,1-.745-.516l-1.55-3.933a2.591,2.591,0,0,0-.736-.967,2.31,2.31,0,0,0-1.3-.281h-.787v4.85a.834.834,0,0,1-.823.846Zm4.208-8.461a1.417,1.417,0,0,0,1.089-.52,1.838,1.838,0,0,0,.464-1.268,1.51,1.51,0,0,0-.454-1.154,1.745,1.745,0,0,0-1.241-.425h-1.775v3.367Z" transform="translate(-993.755 -448.537)" fill="#1f2429"/>
  <path id="Trazado_12" data-name="Trazado 12" d="M1080.985,479.193a9.882,9.882,0,0,1,0-11.007,6.957,6.957,0,0,1,9.592,0,9.93,9.93,0,0,1,0,11.007,6.956,6.956,0,0,1-9.592,0m7.243-2a7.813,7.813,0,0,0,0-6.995,3.107,3.107,0,0,0-4.892,0,7.724,7.724,0,0,0,0,6.995,3.088,3.088,0,0,0,4.892,0" transform="translate(-1029.302 -448.172)" fill="#1f2429"/>
</svg>
