<svg xmlns="http://www.w3.org/2000/svg" xmlns:xlink="http://www.w3.org/1999/xlink" width="86" height="128"><defs><path id="a" d="M0 .17v115.888h85.473V.17z"/><path id="c" d="M.4.159h3.628v3.583H.4V.16z"/><path id="e" d="M10.32.945a.887.887 0 0 0-.288.271c-.32.446-.304 1.384-.005 1.851.323.504 1.193.56 1.675.347.533-.235.652-.732.656-1.215-.003-.566-.1-1.021-.535-1.261a1.487 1.487 0 0 0-.729-.195c-.26 0-.52.07-.774.202zm4.574 3.82c.802-.286 1.617-.463 2.441-.463.442 0 .886.052 1.332.164 1.371.344 2.14 1.362 2.454 2.804.118.541.189 1.106.195 1.662a41.71 41.71 0 0 1-.065 3.242c-.06.914-.35 1.764-.917 2.467-.618.767-1.427 1.138-2.34 1.196-.566.035-1.137-.04-1.706-.068-.091-.004-.184-.021-.3-.035 0 .997.002 1.963 0 2.928a2.553 2.553 0 0 1-.031.37c-.046.282-.197.446-.462.456a17.8 17.8 0 0 1-1.307 0c-.29-.011-.437-.178-.48-.489a2.987 2.987 0 0 1-.029-.371c0-3.848-.003-7.696.004-11.543 0-.373.024-.751.094-1.112.128-.655.574-1.015 1.117-1.208zm1.558 8.765c.303.038.612.062.919.062.149 0 .297-.006.444-.017.502-.04.9-.325 1.057-.875.077-.27.103-.566.112-.85.015-.606.005-1.213.004-1.82-.003-.663.012-1.324-.016-1.985-.033-.83-.433-1.345-1.154-1.426-.433-.05-.884-.01-1.319.057-.44.067-.509.205-.51.698v3.362c0 .726-.003 1.45.002 2.173.002.419.087.572.461.62zM3.916 4.388a7.009 7.009 0 0 1 1.005-.074 5.93 5.93 0 0 1 2.461.52c.656.292 1.005.843 1.038 1.62.01.273.025.545.025.817.002 3.747.001 7.494.001 11.241v.187c-.005.62-.175.805-.745.806-.343 0-.686.003-1.028-.012-.32-.017-.477-.184-.521-.528-.014-.1-.013-.203-.013-.303l-.001-2.688v-.197c-.635.029-1.254.098-1.87.073-.934-.036-1.776-.37-2.425-1.148-.542-.65-.81-1.44-.927-2.292C.74 11.093.806 9.767.844 8.446c.017-.63.15-1.25.378-1.835.507-1.3 1.419-2.04 2.694-2.223zm.316 9.16c.23.036.463.053.699.053.171 0 .345-.009.515-.027.621-.065.692-.184.692-.857v-2.592h-.001c0-.942.005-1.884-.002-2.825-.002-.42-.09-.558-.468-.615a6.78 6.78 0 0 0-1.214-.081c-.748.022-1.245.554-1.269 1.372-.03 1.025-.024 2.054-.028 3.08-.001.397.005.794.026 1.19.036.696.42 1.201 1.05 1.301zm18.734-9.01c-.502.004-.687.2-.687.748 0 2.064-.005 4.127.011 6.192a7.03 7.03 0 0 0 .33 2.13c.279.869.768 1.54 1.552 1.917.92.44 1.871.447 2.832.202 1.359-.345 2.265-1.641 2.304-3.253.03-1.222.006-2.445.006-3.668 0-1.293-.005-2.585.005-3.88.002-.216-.08-.313-.255-.35a1.78 1.78 0 0 0-.296-.038c-.265-.005-.53-.001-.793-.001-.675 0-.82.155-.82.885 0 2.119.003 4.237-.004 6.356 0 .278-.02.563-.073.833-.104.538-.41.873-.916.976-.54.112-1.06-.092-1.325-.531-.238-.39-.25-.834-.252-1.28V5.445c0-.092-.002-.186-.012-.278-.05-.465-.208-.62-.643-.628-.16-.002-.32-.004-.482-.004-.16 0-.32.002-.482.004zm-12.657.045c-.202.01-.325.183-.361.403a2.447 2.447 0 0 0-.034.392c-.002 3.145-.002 6.29 0 9.436 0 .13.014.263.034.392.036.232.165.402.377.412.497.02.996.019 1.492-.001.203-.009.33-.175.368-.394.023-.137.036-.277.036-.417.002-1.565.001-3.13.001-4.694 0-1.58.001-3.16-.001-4.74 0-.131-.013-.265-.035-.394-.037-.22-.162-.39-.364-.397a16.41 16.41 0 0 0-1.514.002z"/></defs><g fill="none" fill-rule="evenodd"><path fill="#7D64CE" d="M71.018 46.875l1.318-.826V22.396h-45.01v58.737h45.01V76.53c-1.784-.572-3.102-2.175-3.15-4.112-.033-1.778 1.012-3.318 2.523-4.064h.016c.193-.111.402-.19.611-.254v-1.46a4.716 4.716 0 0 1-1.045.126c-1.977.016-3.842-1.222-4.468-3.175a4.4 4.4 0 0 1-.21-1.365 4.622 4.622 0 0 1 3.248-4.381l2.475-.762v-1.874c-1.093-.285-2.106-.952-2.749-1.968-1.382-2.143-.739-5 1.431-6.366"/><path fill="#FABF62" d="M51.025 108.318l-1.193.588a3.9 3.9 0 0 0 1.193-.588"/><path fill="#4088DA" d="M40.388 97.802c-3.391.279-7.104.75-10.248-1.488-3.46-2.463-4.35-6.867-4.621-9.426a10.916 10.916 0 0 0-1.106 3.671c-.837 7.364 2.854 12.8 10.951 12.8h13.73c2.515 0 4.108 3.328 1.931 4.96l6.844-3.373 5.425-6.747c-9.96-1.054-17.598-.833-22.906-.397"/><path fill="#263357" d="M49.512 93.593c1.775 0 3.215-1.422 3.215-3.175 0-1.754-1.44-3.175-3.215-3.175-1.776 0-3.215 1.421-3.215 3.175 0 1.753 1.44 3.175 3.215 3.175"/><g transform="translate(0 11.113)"><mask id="b" fill="#fff"><use xlink:href="#a"/></mask><path fill="#263357" d="M47.442 98.77c-2.282.928-4.437 1.804-6.06 2.96-.644.449-2.205 1.634-3.53 2.648L14.295 79.273c-.522-5.462-2.973-13.389-4.043-16.843l-.258-.833c-1.032-3.416.877-8.092 3.086-13.508 2.508-6.146 5.351-13.111 5.436-21.216.024-2.199 1.355-3.274 2.583-3.343 1.168-.083 2.652.808 3.012 3.458v52.954c0 5.034 4.146 9.129 9.243 9.129H61.48c-3.87 5.564-9.253 7.753-14.039 9.7zM27.327 9.298c0-3.282 2.705-5.953 6.028-5.953h32.953c3.324 0 6.029 2.671 6.029 5.953v23.765L70.15 34.43a6.23 6.23 0 0 0-2.748 3.889c-.37 1.62-.08 3.27.82 4.667a5.821 5.821 0 0 0 2.04 1.953l-.9.286a6.196 6.196 0 0 0-3.648 3.032 6.07 6.07 0 0 0-.418 4.699 6.146 6.146 0 0 0 4.05 4 6.021 6.021 0 0 0-1.768 4.382c.065 2.794 2.09 5.127 4.759 5.73v12.875c0 3.283-2.705 5.954-6.029 5.954H33.355c-3.323 0-6.028-2.67-6.028-5.954V9.298zm50.057 5.922c1.43-.89 3.472-.429 4.372.968.949 1.46.499 3.397-.964 4.318l-5.24 3.286V16.38l1.832-1.16zm-.386 18.685a2.952 2.952 0 0 1 1.64-.477c1.06 0 2.025.524 2.588 1.397.434.683.579 1.493.402 2.286a2.968 2.968 0 0 1-1.35 1.89l-5.112 3.206c-1.383.873-3.36.429-4.228-.92A3.009 3.009 0 0 1 70.536 39a2.974 2.974 0 0 1 1.35-1.89l2.958-1.857 2.154-1.35zm2.99 14.478a2.984 2.984 0 0 1-1.977 3.746l-4.372 1.365h-.016l-.22.077c-.047.016-.093.03-.138.052l-1.105.332c-1.56.476-3.312-.445-3.794-1.953a2.864 2.864 0 0 1 .209-2.27 2.955 2.955 0 0 1 1.768-1.476l5.851-1.826c.29-.095.595-.143.9-.143 1.319 0 2.508.857 2.894 2.096zm-1.157 12.7a2.834 2.834 0 0 1-.804 2.032 2.899 2.899 0 0 1-2.025.889l-2.058.047h-.193v.04c-.022.002-.042.009-.064.012v-.052a2.904 2.904 0 0 1-2.894-2.794c-.032-1.571 1.238-2.873 2.83-2.92h.273l.029-.004c.007 0 .012.004.019.004.028 0 .052-.015.08-.016h.097l1.816-.032c1.56 0 2.862 1.254 2.894 2.794zM65.16 89.07h1.147c5.098 0 9.243-4.095 9.243-9.129V67.195l.53-.016a6.023 6.023 0 0 0 4.26-1.873 5.888 5.888 0 0 0 1.705-4.287c-.032-1.635-.74-3.095-1.865-4.175a6.216 6.216 0 0 0-2.267-1.365l1.061-.333c3.28-1.017 5.112-4.477 4.083-7.732a6.198 6.198 0 0 0-3.874-3.953l2.83-1.778c2.91-1.825 3.777-5.667 1.929-8.556a6.297 6.297 0 0 0-5.305-2.874c-1.093 0-2.154.27-3.087.826v-3.524l6.96-4.366c2.975-1.857 3.859-5.763 1.962-8.7-1.173-1.825-3.183-2.92-5.401-2.92a6.47 6.47 0 0 0-3.408.968l-.113.063V9.298c0-5.033-4.145-9.128-9.243-9.128H33.355c-5.097 0-9.243 4.095-9.243 9.128v11.86a5.626 5.626 0 0 0-3.195-.798c-2.758.154-5.573 2.43-5.615 6.48-.078 7.506-2.8 14.177-5.202 20.062-2.436 5.969-4.54 11.122-3.184 15.608l.26.848c.972 3.132 3.11 10.044 3.791 15.047L.54 87.554a1.571 1.571 0 0 0-.133 2.24 1.618 1.618 0 0 0 2.268.133l9.452-8.294 24.253 25.849c.007.008.008.019.014.027.013.017.034.022.047.038l1.931 2.057-4.047 3.702a1.573 1.573 0 0 0-.086 2.244c.317.337.747.508 1.179.508.39 0 .783-.14 1.092-.423l5.226-4.78a1.576 1.576 0 0 0 .087-2.245l-1.778-1.894c1.595-1.22 2.735-2.076 3.203-2.403 1.33-.945 3.224-1.715 5.418-2.607 5.288-2.15 11.87-4.826 16.32-12.151.094-.153.139-.319.175-.484z" mask="url(#b)"/></g><path fill="#263357" d="M9.588 100.39a3.022 3.022 0 0 0-1.047 4.176c.88 1.439 2.773 1.902 4.23 1.033a3.022 3.022 0 0 0 1.047-4.176c-.88-1.44-2.773-1.902-4.23-1.034m6.487-73.231c.888 0 1.607-.711 1.607-1.588v-6.746c0-8.535 7.031-15.479 15.673-15.479h2.01c.887 0 1.607-.71 1.607-1.587 0-.876-.72-1.588-1.608-1.588h-2.009c-10.414 0-18.888 8.368-18.888 18.654v6.746c0 .877.72 1.588 1.608 1.588"/><g transform="translate(39.383)"><mask id="d" fill="#fff"><use xlink:href="#c"/></mask><path fill="#263357" d="M1.897 3.71c.112.016.209.032.321.032.884 0 1.624-.619 1.784-1.476A1.773 1.773 0 0 0 3.697.932 1.767 1.767 0 0 0 2.523.186C1.543.012.595.678.433 1.646c-.096.461.017.937.306 1.334.273.397.691.651 1.158.73" mask="url(#d)"/></g><path fill="#263357" d="M84.103 85.293c-.98-.191-1.929.492-2.106 1.444-.08.476.032.937.306 1.334.273.397.69.65 1.173.746.097.016.21.016.306.016.884 0 1.64-.62 1.784-1.477a1.672 1.672 0 0 0-.306-1.333 1.75 1.75 0 0 0-1.157-.73m-.514 5.522c-.889 0-1.608.711-1.608 1.587 0 8.535-7.031 15.479-15.673 15.479-.888 0-1.607.71-1.607 1.587 0 .876.72 1.588 1.607 1.588 10.414 0 18.888-8.368 18.888-18.654 0-.876-.72-1.587-1.607-1.587"/><g transform="translate(35 42)"><mask id="f" fill="#fff"><use xlink:href="#e"/></mask><path fill="#FFF" d="M-1.578 21.85H31.7V-1.603H-1.578z" mask="url(#f)"/></g></g></svg>