<svg xmlns="http://www.w3.org/2000/svg" xmlns:xlink="http://www.w3.org/1999/xlink" width="114" height="109"><defs><path id="a" d="M0 .61v51.214h113.696V.61z"/></defs><g fill="none" fill-rule="evenodd"><path fill="#7D64CE" d="M111.79 58.073l-14.134 38.23v.99c0 2.048-1.686 3.707-3.768 3.707H51.824a3.818 3.818 0 0 1-2.988-1.422A3.701 3.701 0 0 1 48 97.237v-.335a20.16 20.16 0 0 0 2.96-1.477h40.988L107.641 53l2.11.767c1.77.627 2.691 2.564 2.04 4.306"/><path fill="#4088DA" d="M51.706 38h31.762C85.411 38 87 36.465 87 34.589V11.41C87 9.535 85.411 8 83.468 8H51.002c-1.942 0-3.531 1.535-3.531 3.411v18.407L39 38h12.706z"/><path fill="#263357" d="M9.366 28.408c.241-.64.88-2.343 2.507-3.699 2.383-1.986 5.222-1.871 6.146-1.834 1.6.065 2.567.545 3.685 1.101 1.185.59 2.53 1.258 4.665 1.488 1.575.17 3.178.068 4.79-.305.143.85.158 1.978-.32 3.158a5.241 5.241 0 0 1-1.538 2.08c-.015.008-.032.007-.047.017-1.449.89-3.796 1.947-6.772 1.947h-.095a12.573 12.573 0 0 1-2.643-.302c-1.999-.44-3.973.64-4.799 2.485-1.167-1.16-2.635-1.73-4.034-1.439-.765.16-1.396.58-1.9 1.076-.321-1.498-.467-3.578.355-5.773m-1.756 9.32c.046 1.528.72 3.052 1.678 4.177v8.975c0 .79.616 1.432 1.378 1.432.762 0 1.378-.641 1.378-1.432v-7.09c.885.304 1.7.38 2.235.383h.004c.759 0 1.375-.639 1.378-1.428.003-.79-.612-1.433-1.374-1.436-.574-.002-1.667-.123-2.555-.91-1.008-.893-1.737-2.566-1.217-3.63.101-.204.466-.757.94-.857.718-.154 2.09.675 2.728 2.634.197.607.727 1.011 1.377.972.616-.033 1.137-.49 1.273-1.115l.508-2.34c.188-.861.983-1.385 1.824-1.204a15.26 15.26 0 0 0 3.204.366 14.843 14.843 0 0 0 4.523-.65c.037-.004.073.01.111.003a8.53 8.53 0 0 0 1.515-.453c.554 3.236.765 6.518.58 9.784-.122 2.15-.385 3.278-.748 4.837l-.227.993c-.124.55-.501.992-.981 1.15a7.112 7.112 0 0 1-2.766.34c-3.003-.236-4.895-2.393-5.402-3.05a1.342 1.342 0 0 0-1.938-.216 1.471 1.471 0 0 0-.21 2.013c.704.908 2.452 2.785 5.174 3.66v1.932c0 .791.616 1.432 1.378 1.432.761 0 1.378-.64 1.378-1.432v-1.46c.054 0 .108.006.162.006a9.778 9.778 0 0 0 3.054-.494c1.405-.463 2.49-1.7 2.833-3.232l.224-.967c.366-1.577.684-2.937.82-5.343a46.424 46.424 0 0 0-.793-11.456 8.067 8.067 0 0 0 2.323-3.196c1.172-2.894.396-5.542.009-6.546-.268-.693-1.007-1.059-1.69-.833-1.703.555-3.4.747-5.043.568-1.662-.179-2.683-.686-3.761-1.222-1.28-.635-2.6-1.292-4.768-1.38-3.185-.133-5.864.701-7.978 2.463-2.2 1.834-3.066 4.134-3.35 4.892-1.595 4.255-.405 8.167.182 9.652.127.32.357.556.63.708"/><g transform="translate(0 51)"><mask id="b" fill="#fff"><use xlink:href="#a"/></mask><path fill="#263357" d="M110.735 6.655L97.268 43.392H94.25L108.767 3.83l.779.28c.495.184.906.535 1.133 1.027a1.95 1.95 0 0 1 .056 1.518zM96.517 46.68c0 .505-.17.983-.453 1.363-.41.59-1.105.97-1.898.97h-42.06a2.374 2.374 0 0 1-1.593-.626 23.373 23.373 0 0 0 3.732-2.185h42.272v.478zm-52.213-4.905l9.828-3.12a2.71 2.71 0 0 1 1.6.098l6.443 3.682a.48.48 0 0 0 .17.085.59.59 0 0 1 .369.534.343.343 0 0 1-.34.337h-8.596c-.312 0-.61.098-.864.281a16.32 16.32 0 0 1-1.671 1.124 20.09 20.09 0 0 1-2.96 1.49 19.57 19.57 0 0 1-3.98 1.167v-5.678zm-7.081 7.238H24.308c-6.94 0-12.576-5.594-12.576-12.48V23.716c0-.773-.637-1.405-1.416-1.405-.779 0-1.416.632-1.416 1.405v12.818c0 5.143 2.577 9.71 6.514 12.48H3.32a88.42 88.42 0 0 1 .326-21.194A88.154 88.154 0 0 1 9.495 6.05 32.166 32.166 0 0 0 15.3 8.454a32.383 32.383 0 0 0 7.491 1.349 94.835 94.835 0 0 1 6.175 15.375 93.21 93.21 0 0 1 2.875 12.592H29.59c-2.72 0-5.14-3.64-5.14-6.52V20.904c0-.773-.638-1.405-1.417-1.405-.793 0-1.416.632-1.416 1.405V31.25c0 4.315 3.484 9.332 7.973 9.332h7.633v8.433zm4.248-7.45v7.452h-1.416V40.58h1.416v.984zm71.77-37.622a4.768 4.768 0 0 0-2.732-2.473l-2.11-.773a1.421 1.421 0 0 0-1.813.843L91.235 43.392h-25.74c.013-.114.05-.22.05-.337 0-1.35-.792-2.544-2.038-3.092l-6.458-3.71-.17-.085c-1.076-.422-2.096-.562-3.512-.225l-9.106 2.895a1.41 1.41 0 0 0-1.373-1.068h-8.186a96.181 96.181 0 0 0-3.03-13.407 96.602 96.602 0 0 0-6.727-16.57 1.436 1.436 0 0 0-1.218-.759 28.984 28.984 0 0 1-7.59-1.265A29.647 29.647 0 0 1 9.55 2.846a1.438 1.438 0 0 0-1.175-.14 1.404 1.404 0 0 0-.864.786A91.632 91.632 0 0 0 .828 27.441a91.756 91.756 0 0 0-.184 23.147 1.417 1.417 0 0 0 1.402 1.236h40.842c.778 0 1.416-.632 1.416-1.405v-.127c1.177-.18 2.318-.485 3.443-.85.93 1.427 2.524 2.382 4.36 2.382h42.06c2.86 0 5.182-2.305 5.182-5.143v-.745L113.398 7.61c.453-1.208.382-2.501-.156-3.668z" mask="url(#b)"/></g><path fill="#263357" d="M93 105c-1.102 0-2 .898-2 2 0 1.102.898 2 2 2 1.102 0 2-.898 2-2 0-1.102-.898-2-2-2M66 4c1.102 0 2-.898 2-2 0-1.102-.898-2-2-2-1.102 0-2 .898-2 2 0 1.102.898 2 2 2m21.585 101h-72.17c-.782 0-1.415.671-1.415 1.5s.633 1.5 1.415 1.5h72.17c.782 0 1.415-.671 1.415-1.5s-.633-1.5-1.415-1.5M47.918 30.347c.266-.258.416-.608.416-.972v-18.56c0-1.139.954-2.065 2.126-2.065h32.58c1.172 0 2.127.926 2.127 2.065v23.37c0 1.139-.955 2.065-2.127 2.065H41.837l6.081-5.903zM38.417 39H83.04c2.735 0 4.96-2.16 4.96-4.815v-23.37C88 8.16 85.775 6 83.04 6H50.46c-2.735 0-4.96 2.16-4.96 4.815v17.99l-8.085 7.848a1.345 1.345 0 0 0-.307 1.499c.219.513.736.848 1.309.848zM90.13 71.2H55.322a1.477 1.477 0 0 1-1.485-1.466V50.265c0-.808.667-1.465 1.485-1.465h28.365c.819 0 1.485.657 1.485 1.465v15.462c0 .371.15.727.416.99L90.13 71.2zM83.687 46H55.322C52.94 46 51 47.913 51 50.265v19.47c0 2.351 1.939 4.264 4.322 4.264h38.26c.784 0 1.418-.627 1.418-1.4 0-.471-.235-.888-.597-1.142l-6.394-6.31V50.265c0-2.352-1.94-4.265-4.322-4.265z"/><path fill="#263357" d="M77.611 14H55.39c-.77 0-1.39.671-1.39 1.5s.62 1.5 1.389 1.5H77.61c.767 0 1.389-.671 1.389-1.5S78.377 14 77.61 14M64.5 25a1.5 1.5 0 0 0 0-3h-9a1.5 1.5 0 1 0 0 3h9zm7 0a1.5 1.5 0 0 0 0-3h-3a1.5 1.5 0 1 0 0 3h3zm2.063 3H53.436c-.794 0-1.437.671-1.437 1.5 0 .828.643 1.5 1.438 1.5h20.124c.795 0 1.438-.672 1.438-1.5 0-.829-.643-1.5-1.438-1.5m6.002 25H59.436c-.794 0-1.437.671-1.437 1.5 0 .828.643 1.5 1.438 1.5h20.124c.795 0 1.438-.672 1.438-1.5 0-.829-.643-1.5-1.438-1.5M59.429 63H76.57c.79 0 1.429-.672 1.429-1.5 0-.829-.64-1.5-1.429-1.5H59.43c-.79 0-1.429.671-1.429 1.5 0 .828.639 1.5 1.429 1.5m8.195 2h-8.25c-.76 0-1.375.448-1.375 1s.615 1 1.375 1h8.25c.76 0 1.375-.448 1.375-1s-.615-1-1.375-1M78.5 65h-6c-.83 0-1.5.448-1.5 1s.67 1 1.5 1h6c.829 0 1.5-.448 1.5-1s-.671-1-1.5-1M42.438 20c.794 0 1.437-.64 1.437-1.429v-7.855c0-4.333 3.548-7.859 7.908-7.859h10.78c.794 0 1.437-.64 1.437-1.428C64 .639 63.357 0 62.562 0h-10.78C45.838 0 41 4.807 41 10.716v7.855c0 .789.643 1.429 1.438 1.429"/></g></svg>